<svg id="Layer_1" data-name="Layer 1" xmlns="http://www.w3.org/2000/svg" viewBox="0 0 200 200"><defs><style>.cls-1{fill:#272121;}.cls-2{fill:#fccc0f;}</style></defs><title>Artboard 13 copy 4</title><circle class="cls-1" cx="100" cy="100" r="100"/><path class="cls-2" d="M127.13,50.38l-29-23.24a.66.66,0,0,0-1,.14L36.29,115.72a.66.66,0,0,0,.06.82l50.15,53.25a.66.66,0,0,0,.65.18l64.18-17a.66.66,0,0,0,.47-.79L127.35,50.74A.66.66,0,0,0,127.13,50.38ZM68,139.35l37.19-53.45a.66.66,0,0,1,1.18.24l8.9,42.88a.66.66,0,0,1-.47.77L70.31,142.09a.66.66,0,0,1-.65-.18L68,140.18A.66.66,0,0,1,68,139.35ZM109.5,67.66l-.06.09L103.81,42a.66.66,0,0,1,1.05-.65l14.26,11.42a.66.66,0,0,1,.13.89l-9.76,14ZM96.78,41.88,104,75.14a.66.66,0,0,1-.1.52L63.32,134a.66.66,0,0,1-1,.08L45.13,115.87a.66.66,0,0,1-.06-.82L95.6,41.65A.66.66,0,0,1,96.78,41.88ZM76.29,147.55l46.5-12.88a.66.66,0,0,0,.47-.77L111.48,77.17a.66.66,0,0,1,.1-.51l10.29-14.79a.66.66,0,0,1,1.18.22l20.53,85.14a.66.66,0,0,1-.47.79L89.34,162.31a.66.66,0,0,1-.65-.18L76,148.63A.66.66,0,0,1,76.29,147.55Z"/></svg>