<svg xmlns="http://www.w3.org/2000/svg" width="29.32" height="36" viewBox="0 0 29.32 36">
  <path id="Path_5332" data-name="Path 5332" d="M47.364,28.619l-6.624-5.1a1.287,1.287,0,0,0-1.845.29L24.521,44.656a1.287,1.287,0,0,0,.124,1.615L36.523,58.852a1.286,1.286,0,0,0,1.265.361l14.868-3.934a1.287,1.287,0,0,0,.923-1.54L47.832,29.344A1.286,1.286,0,0,0,47.364,28.619Zm-2.687,1.414-1.687,2.415-.8-3.764a.321.321,0,0,1,.51-.322l1.954,1.5A.124.124,0,0,1,44.676,30.033Zm-5.225-1.51,1.468,6.886L31.181,49.346l-3.6-3.809a.482.482,0,0,1-.046-.6L38.927,28.419A.291.291,0,0,1,39.451,28.523Zm4.173,19.561a.5.5,0,0,1-.349.582L33.248,51.536l-.215-.229,8.641-12.365ZM35.29,53.7l10.482-3a1.166,1.166,0,0,0,.82-1.365L43.743,35.981l1.979-2.833a.171.171,0,0,1,.306.059l4.579,19.437a.441.441,0,0,1-.316.528l-12.4,3.281Z" transform="translate(-24.293 -23.255)" fill="#292524"/>
</svg>
